# xmcd CD database file
#
# Track frame offsets:
#	150
#	11428
#	23373
#	33233
#	47513
#	58643
#	74093
#	85681
#	100923
#	121633
#	141073
#	160131
#	172191
#	183791
#	200496
#	211886
#
# Disc length: 3131 seconds
#
# Revision: 0
# Processed by: cddbd v1.5.2PL0 Copyright (c) Steve Scherf et al.
# Submitted via: CDex 1.70beta2
#
DISCID=c90c3910
DTITLE=Various Artist - Midnight Blues
DYEAR=2000
DGENRE=Blues
TTITLE0=Memphis Slim: Lonesome
TTITLE1=Charles Brown: Trouble Blues
TTITLE2=Leadbelly: How Long
TTITLE3=Buddy Guy: Broken Hearted Blues
TTITLE4=B.B. King: Catfish Blues
TTITLE5=Big Joe Williams: Nobody Knows You Wehn You're Down and Out
TTITLE6=Ray Charles: Ray Charles Blues
TTITLE7=Mississippi Fred McDowell: Bit Fat Mama
TTITLE8=Buddy Guy - Junior Wells: Buddy's Blues
TTITLE9=B.B. King: Sweet Sixteen
TTITLE10=John Mayall: John Lee Boogie
TTITLE11=Lightnin' Hopkins: Lonesome Dog
TTITLE12=Leadbelly: Goodnight Irene
TTITLE13=Memphis Slim: Cold Blooded Woman
TTITLE14=Big Joe Willaims: Bye Bye Baby Blues
TTITLE15=B.B. King: The Thrill is Gone
EXTD=YEAR: 2000
EXTT0=
EXTT1=
EXTT2=
EXTT3=
EXTT4=
EXTT5=
EXTT6=
EXTT7=
EXTT8=
EXTT9=
EXTT10=
EXTT11=
EXTT12=
EXTT13=
EXTT14=
EXTT15=
PLAYORDER=
